HIERARCHY
ROOT hip
{
	OFFSET 0.000000 0.000000 0.000000 
	CHANNELS 6 Xposition Yposition Zposition Xrotation Zrotation Yrotation
	JOINT abdomen
	{
		OFFSET 0.000000 3.402643 0.000000 
		CHANNELS 3 Xrotation Zrotation Yrotation
		JOINT chest
		{
			OFFSET 0.000000 8.438565 -0.680529 
			CHANNELS 3 Xrotation Zrotation Yrotation
			JOINT neck
			{
				OFFSET 0.000000 10.207942 -0.272212 
				CHANNELS 3 Xrotation Zrotation Yrotation
				JOINT head
				{
					OFFSET 0.000000 3.130431 0.000000 
					CHANNELS 3 Xrotation Zrotation Yrotation
					End Site
					{
						OFFSET 0.000000 3.130435 0.000000 
					}
				}
			}
			JOINT lCollar
			{
				OFFSET 3.470700 6.669187 -0.816635 
				CHANNELS 3 Yrotation Zrotation Xrotation
				JOINT lShldr
				{
					OFFSET 3.198488 0.000000 0.000000 
					CHANNELS 3 Zrotation Yrotation Xrotation
					JOINT lForeArm
					{
						OFFSET 10.139888 0.000000 0.000000 
						CHANNELS 3 Yrotation Zrotation Xrotation
						JOINT lHand
						{
							OFFSET 8.370511 0.000000 0.000000 
							CHANNELS 3 Zrotation Yrotation Xrotation
							End Site
							{
								OFFSET 4.083176 0.000000 0.000000 
							}
						}
					}
				}
			}
			JOINT rCollar
			{
				OFFSET -3.470700 6.669187 -0.816635 
				CHANNELS 3 Yrotation Zrotation Xrotation
				JOINT rShldr
				{
					OFFSET -3.198488 0.000000 0.000000 
					CHANNELS 3 Zrotation Yrotation Xrotation
					JOINT rForeArm
					{
						OFFSET -10.139888 0.000000 0.000000 
						CHANNELS 3 Yrotation Zrotation Xrotation
						JOINT rHand
						{
							OFFSET -8.370511 0.000000 0.000000 
							CHANNELS 3 Zrotation Yrotation Xrotation
							End Site
							{
								OFFSET -4.083176 0.000000 0.000000 
							}
						}
					}
				}
			}
		}
	}
	JOINT lThigh
	{
		OFFSET 5.308129 -1.633274 1.361059 
		CHANNELS 3 Xrotation Zrotation Yrotation
		JOINT lShin
		{
			OFFSET -2.041588 -20.007561 0.000000 
			CHANNELS 3 Xrotation Zrotation Yrotation
			JOINT lFoot
			{
				OFFSET 0.000000 -19.190928 -1.224953 
				CHANNELS 3 Xrotation Yrotation Zrotation
				End Site
				{
					OFFSET 0.000000 -2.449906 4.627600 
				}
			}
		}
	}
	JOINT rThigh
	{
		OFFSET -5.308129 -1.633274 1.361059 
		CHANNELS 3 Xrotation Zrotation Yrotation
		JOINT rShin
		{
			OFFSET 2.041588 -20.007561 0.000000 
			CHANNELS 3 Xrotation Zrotation Yrotation
			JOINT rFoot
			{
				OFFSET 0.000000 -19.190928 -1.224953 
				CHANNELS 3 Xrotation Yrotation Zrotation
				End Site
				{
					OFFSET 0.000000 -2.449906 4.627600 
				}
			}
		}
	}
}
MOTION
Frames: 19
Frame Time: 0.033333
0.920539 38.610546 -17.293289 15.820313 -8.271484 51.473206 27.988281 9.863281 0.978235 -21.367186 -3.691406 -2.373675 -31.103514 -10.703125 -20.393021 9.677735 2.451172 -22.450754 4.101563 9.101563 0.361328 30.947287 -106.328125 -71.923439 -64.462891 -3.017578 -34.198708 6.835937 29.189451 2.500000 -8.046876 -14.560546 0.556641 11.093750 61.533203 -69.083214 37.226563 3.652344 -53.252571 -10.585937 -15.146484 2.136122 -27.048615 34.465279 21.259949 66.492485 0.579471 -3.639962 -16.693930 -1.966253 -6.058559 -74.752541 -33.885509 4.962424 59.297401 -0.546591 3.195260 6.608541 2.649117 4.481100 
0.778023 38.986752 -16.630039 16.874998 -9.326172 50.244141 29.072266 10.371094 1.134570 -22.070313 -3.515625 -2.393177 -31.308594 -10.312500 -20.050575 8.261719 2.265625 -22.167582 3.593750 8.916017 0.281690 41.904305 -105.361328 -82.323875 -66.308586 -3.076172 -31.825649 5.527343 28.574217 1.787109 -8.095704 -13.662109 0.478516 14.707031 60.878910 -62.579361 43.388672 3.632813 -54.101563 -12.695313 -14.765626 2.724609 -29.313536 33.409107 22.782064 66.141296 0.570528 -3.629498 -17.212664 0.125436 -5.313728 -75.481499 -32.321690 4.220938 59.297401 -0.546592 3.195260 5.901785 2.454813 4.444914 
0.702260 39.369595 -16.080961 17.578125 -10.205079 48.826393 30.136721 10.537110 1.193192 -23.115234 -3.330078 -2.431640 -30.976564 -9.931641 -19.736855 7.031250 2.089844 -21.699219 2.558594 8.720703 0.283203 60.039085 -106.220703 -99.608986 -68.447266 -3.076172 -30.331511 4.345703 27.744139 1.210938 -7.597657 -12.763671 0.546875 23.603516 59.375000 -51.230465 49.541019 3.681641 -54.746723 -13.671875 -13.496094 2.617188 -30.710802 32.689545 22.567564 65.631035 0.571039 -3.422555 -17.503700 1.851635 -4.742034 -75.572731 -30.760580 3.412198 58.771290 -0.536843 3.158649 5.508446 2.743113 4.367913 
0.689574 39.711418 -15.592949 17.753906 -10.732421 47.070305 30.839844 10.478517 1.359197 -23.994141 -3.505860 -2.461535 -30.283201 -9.033203 -19.659735 6.152343 1.914062 -21.396484 1.337891 8.359375 0.311080 -102.714844 -69.541008 64.443977 -70.400391 -2.939453 -28.457031 2.734375 26.904299 0.507813 -6.826172 -11.298828 0.402304 34.833984 56.123047 -37.931343 55.244141 3.544922 -56.328732 -14.462892 -11.875000 2.558594 -31.100372 32.424053 21.703974 64.902672 0.413802 -3.678321 -18.013657 1.637039 -4.664408 -75.050476 -29.186577 2.466364 58.076363 -0.361495 3.047993 5.446471 3.060733 4.494425 
0.742335 39.976532 -15.158767 17.578125 -11.259766 45.662159 30.986328 9.980469 1.191406 -24.521482 -3.505860 -2.481066 -29.599607 -8.476563 -19.366673 5.976563 2.431640 -21.044922 0.126953 7.470700 0.320996 -91.406250 -62.353516 55.157368 -71.816406 -2.929688 -26.718752 0.273438 26.191406 -0.546875 -5.830078 -9.326173 0.441036 45.351566 50.673828 -24.240492 58.886723 3.583984 -59.121700 -14.189453 -9.394531 1.826172 -31.083740 32.948349 19.840609 64.936295 0.073134 -3.540131 -18.709051 1.017045 -4.824122 -74.319946 -27.605324 1.325007 57.374264 -0.351501 3.012276 5.597412 3.542190 4.244380 
0.879752 40.156509 -14.777698 17.050779 -11.435547 44.433594 30.429688 9.365234 0.812136 -24.697266 -3.857422 -2.480469 -28.730471 -7.929688 -19.238281 6.152343 2.968750 -20.683596 -0.732422 6.230469 0.244141 -85.039063 -53.974606 51.943352 -71.865234 -2.841797 -25.234377 -1.982422 25.419922 -1.597371 -5.039062 -7.001953 0.264862 52.578125 43.662109 -11.985443 60.175785 3.515625 -62.725212 -13.603516 -8.564453 1.697766 -30.172596 33.215645 18.399822 65.102608 0.589814 -3.425667 -20.132032 2.355365 -4.428899 -73.087570 -26.549839 0.114763 57.373901 -0.351484 3.021935 6.372305 4.810502 4.244259 
1.107871 40.242470 -14.454253 15.820313 -11.083984 43.728592 29.511721 8.466797 0.128391 -24.345701 -4.208984 -2.471420 -28.212891 -7.744140 -19.083345 7.382812 3.671875 -20.449219 -0.898438 4.648438 0.244141 -81.064453 -45.830078 52.031250 -70.029297 -2.822266 -24.940924 -3.857422 24.433596 -2.207031 -4.726563 -4.697266 0.136719 57.763676 37.128910 -0.882775 59.042969 3.554688 -66.484978 -14.316406 -10.546875 2.195478 -28.816080 33.676556 16.248024 65.789688 0.570620 -3.623028 -20.568966 5.418671 -3.209265 -72.111511 -26.149618 -1.004817 57.734489 -0.363019 3.041641 7.924975 6.693978 3.813663 
1.433450 40.249111 -14.162701 14.062501 -10.029297 43.377201 28.212893 7.021485 -0.526150 -24.345701 -4.384766 -2.471450 -26.474609 -7.724608 -18.907564 8.789063 4.560547 -20.204300 -1.064453 3.251953 0.058594 -77.763672 -37.617188 53.421776 -67.470703 -2.822265 -25.947266 -6.250000 24.052734 -3.242188 -4.921875 -2.558594 -0.048392 62.050781 30.751949 9.580079 55.898438 3.632813 -69.688118 -15.781251 -12.089844 2.802734 -26.395605 34.275276 13.702550 66.483047 0.452614 -3.728879 -19.082701 7.855206 -2.444128 -70.104156 -26.199869 -1.689276 58.427208 -0.371222 3.068186 9.697166 8.843194 3.407178 
1.863130 40.206310 -13.893914 11.416016 -8.623047 43.582520 26.572266 5.351563 -1.074218 -24.521484 -4.912109 -2.305523 -23.828125 -7.373047 -18.945311 11.074219 5.263672 -20.087893 -0.703125 2.548828 0.019097 -74.746094 -29.804688 55.024445 -66.337891 -2.841797 -26.748045 -9.843750 25.527344 -4.976261 -5.283203 -0.791016 -0.087756 65.820313 24.199221 18.734472 51.591793 3.505859 -71.835938 -16.171875 -12.021485 2.937419 -22.605936 34.449306 11.856004 65.629845 0.589713 -3.439877 -15.118810 8.086127 -2.963421 -66.788277 -26.548845 -2.904494 58.956245 -0.546712 3.170904 10.542738 10.899682 3.020510 
2.382444 40.186985 -13.683106 8.251953 -6.689453 43.759766 24.951172 3.505860 -1.679090 -25.224609 -5.439454 -1.973582 -19.599609 -6.494141 -19.034306 13.544922 5.439454 -19.794922 -0.527344 2.373047 0.009766 -72.080078 -22.451174 56.201172 -67.265625 -2.832031 -25.790531 -11.855469 26.728516 -6.323731 -5.634766 0.273442 -0.166059 69.804680 16.699219 25.058594 47.958984 3.564453 -72.793571 -14.824219 -10.351563 2.156448 -17.899145 35.025696 10.210378 63.692478 0.414122 -3.631253 -10.307894 7.675621 -3.894018 -62.013977 -26.890785 -4.463046 59.132317 -0.536902 3.174112 9.314499 11.958606 3.081624 
2.945627 40.237137 -13.616946 4.570313 -4.755859 44.276531 23.339842 1.787109 -2.060547 -26.103514 -5.966797 -1.651406 -15.390624 -5.605469 -18.956032 16.191408 5.791016 -19.305655 0.175781 2.548827 -0.019966 -69.345703 -16.874998 58.210056 -69.414063 -2.753906 -23.339842 -12.041016 26.885569 -6.314308 -6.337891 0.449219 -0.146484 73.496094 9.580078 28.203123 45.927731 3.525391 -74.042969 -12.939453 -7.285157 1.199934 -12.489341 35.248287 9.462937 61.950787 0.092423 -3.378614 -8.334439 7.596214 -4.203246 -55.796482 -27.018921 -6.247624 58.075951 -0.371159 3.052576 6.770958 11.767802 3.674841 
3.489484 40.393169 -13.816256 1.054688 -2.988272 44.814034 21.572266 0.273438 -2.539016 -26.806641 -6.308594 -1.503906 -10.849609 -4.501954 -18.544922 18.310549 5.781250 -18.680658 1.044922 3.076172 0.107422 -66.923828 -12.792969 59.831821 -72.773438 -2.500000 -20.556641 -11.796875 27.617188 -6.411489 -7.041016 0.097656 -0.185547 75.810547 3.759766 31.308594 46.308594 3.662110 -75.586563 -12.675781 -5.595703 0.877954 -7.568231 35.209751 9.298472 60.720963 -0.083132 -3.435919 -8.980717 8.546659 -3.923053 -49.633327 -26.822508 -7.602238 56.157368 -0.371112 3.132410 5.163829 11.091291 4.003019 
3.959713 40.646896 -14.373628 -1.943359 -1.767578 45.351261 19.638672 -1.005859 -3.144702 -27.158201 -6.132813 -1.514715 -7.363281 -3.935547 -18.252625 19.550781 6.298829 -18.094631 1.396484 3.427734 0.078125 -65.019531 -10.244141 60.615238 -75.869141 -2.412109 -18.651932 -11.357422 29.433594 -6.552734 -7.558594 -1.162109 0.009766 75.986328 0.302734 36.894535 47.724609 3.681641 -76.943359 -13.183594 -4.531250 0.829308 -4.072965 34.906540 9.729547 59.855316 0.206784 -3.406465 -11.848671 9.561525 -3.038404 -44.592728 -26.684118 -8.516315 53.170086 -0.000081 2.996650 5.836577 10.200181 3.784022 
4.316949 40.985874 -15.327601 -4.052734 -1.240234 45.703125 17.714844 -1.787109 -3.583984 -26.982422 -5.781250 -1.690437 -5.107422 -3.554688 -17.929688 20.615236 6.640625 -17.684416 1.572266 3.779296 0.058594 -64.033203 -8.847656 60.838345 -77.207031 -2.421875 -16.933180 -11.865233 30.205078 -6.987276 -7.734374 -1.855469 -0.087574 74.951172 -1.152344 42.402344 49.306641 3.574219 -76.572266 -11.914063 -4.091797 0.566406 -1.084598 34.783733 10.659078 58.281773 -0.144397 -3.346028 -14.331584 9.809510 -2.514120 -41.028118 -25.580305 -7.975260 49.129795 0.175758 2.907272 9.119859 8.911159 3.486953 
4.517917 41.351173 -16.645449 -5.283203 -1.240234 46.054482 15.966797 -2.460938 -3.798828 -26.806641 -5.605469 -1.856423 -3.525391 -3.027375 -17.978855 21.318361 6.816407 -17.655090 1.914063 4.140625 0.204373 -63.779297 -8.808595 61.326630 -76.904297 -2.324219 -15.526946 -12.353516 30.478518 -7.202076 -7.910156 -2.060547 0.058594 73.759766 -1.542969 45.790756 49.804688 3.652344 -75.117813 -9.072266 -3.984375 0.389946 0.496117 34.181698 12.449258 56.525734 0.051428 -3.148187 -16.585222 8.829337 -2.873304 -38.626862 -24.751225 -7.090153 44.384712 0.165841 2.500364 13.197993 6.757461 3.487561 
4.593679 41.683273 -18.162252 -6.162109 -1.416016 46.748043 14.746093 -2.734375 -4.072266 -26.630857 -5.253906 -1.846597 -2.636719 -2.851563 -18.008299 21.503908 7.343750 -17.645235 2.265625 4.140625 0.175781 -63.886723 -9.482422 62.060547 -76.162109 -2.343750 -14.833583 -11.914063 30.556641 -6.992188 -8.261718 -2.226563 0.019911 73.193359 -1.562500 46.406250 50.166016 3.662110 -74.482422 -7.451172 -3.330078 0.136719 0.663480 34.052395 14.457215 55.111454 -0.133572 -3.164037 -20.055647 7.127534 -2.803847 -36.869827 -24.224400 -6.493379 40.007568 0.507677 2.257101 15.909518 3.222649 4.282425 
4.565579 41.949451 -19.739759 -6.679687 -1.767578 47.802433 14.394531 -3.076172 -4.180212 -26.279297 -5.253906 -2.012613 -2.255859 -2.890625 -18.359865 21.679686 7.685547 -17.812500 2.265625 4.140625 0.175781 -63.779297 -10.898438 63.152454 -76.220703 -2.343750 -15.556642 -9.716796 30.751953 -5.971567 -8.613282 -1.884766 0.058594 73.027344 -1.591797 44.853245 51.162109 3.652344 -75.029297 -8.515625 -2.783203 0.243668 0.114548 34.163307 17.033924 54.041069 -0.133507 -3.295830 -23.609983 5.222414 -2.789293 -35.276890 -23.696110 -6.362207 37.727219 0.507737 2.324528 16.154667 -0.057849 5.150486 
4.446778 42.143898 -21.272091 -7.207031 -1.767578 49.032902 14.580077 -3.242188 -4.238322 -25.927734 -5.263672 -1.826172 -2.382813 -2.597656 -18.916014 21.328125 8.046876 -18.359375 2.265625 4.140625 0.175781 -63.691406 -12.304688 64.265495 -76.552734 -2.490234 -17.138247 -6.298828 29.990236 -4.042969 -9.140625 -1.513672 -0.078125 73.193359 -1.748047 42.275387 52.812500 3.681641 -75.986954 -11.328126 -2.041016 0.253906 -1.133260 33.935490 19.213539 53.689541 -0.309090 -3.363547 -27.466063 3.791856 -3.196099 -33.743256 -23.197319 -7.449718 38.426529 0.517557 2.185728 14.136336 -1.076755 5.304469 
4.254703 42.294476 -22.698072 -7.568359 -1.582031 50.448948 15.283204 -3.457031 -4.121682 -25.576172 -4.912109 -1.817242 -2.519531 -2.656250 -19.443357 20.800781 8.398438 -19.082031 2.089844 3.964844 0.194637 -63.623047 -13.798828 65.126953 -76.601563 -2.441406 -17.685131 -3.925781 27.587893 -2.519531 -9.316406 -1.337891 -0.058366 73.476563 -1.621094 39.443081 54.023438 3.603516 -75.781250 -13.779296 -1.503906 0.107166 -3.213381 33.319168 19.557829 54.581348 -0.133376 -3.486461 -30.164257 2.761615 -4.077918 -32.464680 -22.797138 -9.433601 40.710472 0.517403 2.284192 10.834398 -2.188478 5.560885 
